<?xml version="1.0" standalone="no"?><!DOCTYPE svg PUBLIC "-//W3C//DTD SVG 1.1//EN" "http://www.w3.org/Graphics/SVG/1.1/DTD/svg11.dtd"><svg t="1732783245431" class="icon" viewBox="0 0 1024 1024" version="1.1" xmlns="http://www.w3.org/2000/svg" p-id="3251" xmlns:xlink="http://www.w3.org/1999/xlink" width="128" height="128"><path d="M551.166 183.206l160.224 93.562c5.76 3.284 5.97 12.398 0 15.682l-190.384 111.258a17.494 17.494 0 0 1-17.908 0l-190.384-111.258c-5.864-3.178-5.968-12.504 0-15.682l160.12-93.562V0L64 238.834v477.67l156.768-91.55v-187.126c-0.104-6.676 7.646-11.444 13.406-7.842l190.384 111.258a18.184 18.184 0 0 1 9.006 15.684v222.41c0.104 6.676-7.646 11.444-13.406 7.84l-160.224-93.562-156.768 91.55L512 1024l408.834-238.834-156.768-91.55-160.224 93.562c-5.656 3.498-13.614-1.058-13.406-7.84V556.928c0-6.676 3.666-12.61 9.006-15.684l190.386-111.258c5.654-3.496 13.612 0.954 13.404 7.842v187.126L960 716.504V238.834L551.166 0v183.206z" p-id="3252" fill="#ffffff"></path></svg>